<svg xmlns="http://www.w3.org/2000/svg" style="background: transparent; background-color: transparent;" xmlns:xlink="http://www.w3.org/1999/xlink" version="1.1" width="551px" height="142px" viewBox="-0.5 -0.5 551 142" content="&lt;mxfile&gt;&lt;diagram name=&quot;BC Antragsmappe Vergleich&quot; id=&quot;bc-antragsmappe-vergleich&quot;&gt;7VdNc9MwEP01PjKT2Ekox+ajLTMwMJShM9xka22pkSUjr+uEX8/Klh2ncaY9FOgwXBLpaT+0q7evTRCt8t21ZYX4aDioIJzwXRCtgzB8O5/SpwP2HojetUBmJW+h6QG4lT/BgxOPVpJDeWSIxiiUxTGYGK0hwSOMWWvqY7PUqOOsBcvgBLhNmDpF7yRH0aIXk8kBvwGZCZ951h3krLP1QCkYN/UAijZBtLLGYLvKdytQrnVdW1q/qzOn/b0saHyOQ9Q6PDBV+dKCcKHIdRnTInML+mZ5QYsflbvV8n2em1gqCY8PKE4TovWnnMMQbUzbIde20jyuEsEZgg7CFTkvWXXPhG02j+3vjNCp6jOyKlf0lQhoXTcabCaBVWUNshyN0GS0siwLxfTp8XlEnjTCEoXaehESoWWZCFc7NZkYDcikou5YHHRiEKN5ddx3TBLoKllPXVhDNwTud7WQCLcFS5xhTVNEWEqRV0YZ2/hGnMFFmhBeojVbGJwskguIU9coJTNNmILUpX+ga0mi8aWH0biwJWWROvvQ2Kxpxnroi+fwEPvqfNaRQ1Kj0Q/nNHQWW8BE+AKSyj7AlUQkHw/dyyxrCg/7Vgyp6tnrLgm7AeSpew0mB7R7MvGn3RTtj7f1YSR7xRCDcZzOPMi8DGR95MOo0MJPy/jkzJ6enOUqiC7J5lN8D1uksmqmsKJujI7IeWJQN/DklbXR8IgSHnrizXPJuUvyjGefEWTIP1WNRgnypGF1TEWGLG6uOjnH1QE3om7vy5u+Sq5E4QhXohegyvwviexmV5iyDwAsqdC9+5srg6YVyckNMK6khlHJ/C5BZbYqCq+yn41F9ydwzPYb2JzZraN3WRI7qvKlNNaFBUcMU6DM/4iwpmkaJqPCyhfxYr7494V1/rSyTn6Xsi6er6wD1v0X1dfJk5dSVdoe/i1uzgY/LaLNLw==&lt;/diagram&gt;&lt;/mxfile&gt;"><defs/><g><g><rect x="0" y="0" width="210" height="140" rx="21" ry="21" fill="none" stroke="none" pointer-events="all"/><path d="M 4.94 5.61 C 4.94 5.61 4.94 5.61 4.94 5.61 M 4.94 5.61 C 4.94 5.61 4.94 5.61 4.94 5.61 M 0.74 16.54 C 2.5 13.06 8 9.38 13.86 1.44 M 0.74 16.54 C 5.47 10.64 10.82 7.38 13.86 1.44 M 0.48 22.94 C 2.47 20.38 9.64 13.53 20.16 0.29 M 0.48 22.94 C 7.64 13.22 13.77 7.92 20.16 0.29 M 0.87 28.58 C 4.45 17.9 19.84 12.94 25.15 0.65 M 0.87 28.58 C 9.04 21.41 15.97 12.45 25.15 0.65 M 0.61 34.98 C 7.47 25.8 14.99 20.75 30.79 0.26 M 0.61 34.98 C 11.72 22.91 20.19 13.37 30.79 0.26 M 1 40.62 C 7.41 30.21 11.65 22.81 35.78 0.62 M 1 40.62 C 14.25 24.76 27.82 11.73 35.78 0.62 M 0.74 47.02 C 14.14 29.05 32.35 12.5 41.42 0.23 M 0.74 47.02 C 12.51 33.08 25.44 22.14 41.42 0.23 M 0.48 53.41 C 16.09 37.61 30.66 23.39 46.41 0.59 M 0.48 53.41 C 18.6 33.99 33.76 17.07 46.41 0.59 M 0.88 59.06 C 21.88 38.58 38.62 13.9 52.05 0.19 M 0.88 59.06 C 20.48 36.31 38.64 19.07 52.05 0.19 M 0.61 65.46 C 23.92 39.23 40.64 21.74 57.04 0.55 M 0.61 65.46 C 19.71 45.83 34.42 25.54 57.04 0.55 M 0.35 71.85 C 11.5 55.95 27.18 40.18 62.68 0.16 M 0.35 71.85 C 25.56 44.77 45.7 16.61 62.68 0.16 M 0.75 77.5 C 18.2 48.04 47.4 30.06 67.67 0.52 M 0.75 77.5 C 18.5 53.91 38.79 34.16 67.67 0.52 M 0.49 83.89 C 19.18 62.54 45.04 35.04 73.31 0.12 M 0.49 83.89 C 16.63 63.98 36.85 43.9 73.31 0.12 M 0.88 89.54 C 31.06 52.68 57.15 22.22 78.3 0.48 M 0.88 89.54 C 26.01 59.76 53.5 26.93 78.3 0.48 M 0.62 95.94 C 30.65 61.88 64.13 18.42 83.94 0.09 M 0.62 95.94 C 22.61 68.82 47.69 41.32 83.94 0.09 M 0.36 102.33 C 28.38 73.99 53.05 36.85 88.93 0.45 M 0.36 102.33 C 35.1 61.28 70.24 23.8 88.93 0.45 M 0.75 107.98 C 22.59 86.47 42.81 62.29 94.57 0.05 M 0.75 107.98 C 22.53 83.5 44.76 60.06 94.57 0.05 M 0.49 114.37 C 35.4 73.05 75.29 26.1 99.56 0.41 M 0.49 114.37 C 40.47 71.49 77.45 28.21 99.56 0.41 M 0.23 120.77 C 38.53 70.29 86.75 22.9 105.2 0.02 M 0.23 120.77 C 21.13 92.44 47.34 63.41 105.2 0.02 M 1.94 124.91 C 32.35 94.92 54.81 66.18 110.19 0.38 M 1.94 124.91 C 44.96 76.72 86.13 24.55 110.19 0.38 M 2.99 129.79 C 34.38 93.49 64.57 54.34 115.17 0.74 M 2.99 129.79 C 35.78 94.52 66.24 60.57 115.17 0.74 M 4.69 133.93 C 34.12 104.46 54.91 78.13 120.82 0.34 M 4.69 133.93 C 34.48 99.16 67.74 64.05 120.82 0.34 M 7.71 136.55 C 48.81 90.04 95.9 42.83 125.8 0.7 M 7.71 136.55 C 48.65 84.41 94.19 34.91 125.8 0.7 M 12.04 137.67 C 40.33 107.37 58.64 78.37 131.45 0.31 M 12.04 137.67 C 51.78 92.25 90.39 48.67 131.45 0.31 M 16.37 138.78 C 43.69 109.54 74.63 73.75 136.43 0.67 M 16.37 138.78 C 55.29 95.36 91.68 49.53 136.43 0.67 M 20.71 139.9 C 69.98 90.55 107.51 37.37 142.08 0.27 M 20.71 139.9 C 47.71 102.12 76.59 70.16 142.08 0.27 M 25.69 140.26 C 60.03 104.28 88.16 63.75 147.06 0.63 M 25.69 140.26 C 74.36 83.9 120.44 28.88 147.06 0.63 M 30.68 140.62 C 60.32 101.82 94.93 63.42 152.71 0.24 M 30.68 140.62 C 81.9 85.82 128 32.09 152.71 0.24 M 36.32 140.22 C 74.63 96.92 114.65 53.5 157.69 0.6 M 36.32 140.22 C 68.42 105.29 97.63 71.19 157.69 0.6 M 41.31 140.58 C 83.07 94.54 129.27 42.8 163.34 0.21 M 41.31 140.58 C 74.5 101.74 106.59 63.59 163.34 0.21 M 46.95 140.19 C 92.06 87.78 131.69 39.31 168.32 0.57 M 46.95 140.19 C 89.68 87.2 136.31 37.78 168.32 0.57 M 51.94 140.55 C 70.76 115.11 97.95 82.65 173.97 0.17 M 51.94 140.55 C 91.72 96.53 130.63 50.88 173.97 0.17 M 57.58 140.15 C 96.26 93.63 139.18 40.36 178.95 0.53 M 57.58 140.15 C 91.86 104.02 125.89 63.75 178.95 0.53 M 62.57 140.51 C 100.96 97.83 146.23 50.07 184.6 0.14 M 62.57 140.51 C 96.83 104.49 126.59 65.23 184.6 0.14 M 68.21 140.12 C 108.19 88.95 153.59 43.65 189.58 0.5 M 68.21 140.12 C 100.66 100.03 137.52 57.35 189.58 0.5 M 73.2 140.48 C 94.94 109.97 124.21 85.84 193.91 1.61 M 73.2 140.48 C 122.9 83.39 167.85 30.72 193.91 1.61 M 78.19 140.84 C 114.92 102.41 144.42 64.81 198.25 2.73 M 78.19 140.84 C 122.07 84.86 170.26 31.54 198.25 2.73 M 83.83 140.44 C 126.1 90.36 163.51 46.11 202.58 3.84 M 83.83 140.44 C 121.45 97.51 154.63 57.85 202.58 3.84 M 88.82 140.8 C 121.87 100.43 159.12 59.29 205.6 6.47 M 88.82 140.8 C 124.79 100.28 162.74 53.69 205.6 6.47 M 94.46 140.41 C 132.16 100.75 161.74 58.01 207.96 9.84 M 94.46 140.41 C 122.98 100.68 154.58 65.19 207.96 9.84 M 99.45 140.77 C 124.28 107.89 158.4 74.45 209.01 14.73 M 99.45 140.77 C 130.15 99.75 166.71 62.85 209.01 14.73 M 105.09 140.37 C 131.84 104.42 162.35 73.82 210.06 19.62 M 105.09 140.37 C 145.37 92.4 182.07 46.87 210.06 19.62 M 110.08 140.73 C 135.6 107.48 163.86 74.94 209.8 26.02 M 110.08 140.73 C 148.14 94.36 186.76 54.76 209.8 26.02 M 115.72 140.34 C 135.63 111.01 160.11 87.75 210.19 31.66 M 115.72 140.34 C 148.45 99.21 182.69 59.13 210.19 31.66 M 120.71 140.7 C 151.53 110.28 176.86 76.91 209.93 38.06 M 120.71 140.7 C 151.87 103.22 179.43 66.9 209.93 38.06 M 126.35 140.31 C 144.87 114.01 170.74 95.39 210.33 43.7 M 126.35 140.31 C 151.92 114.4 177.22 84 210.33 43.7 M 131.34 140.67 C 154.92 115.98 179.94 88.96 210.06 50.1 M 131.34 140.67 C 154.15 112.42 178.58 86.64 210.06 50.1 M 136.98 140.27 C 161.11 110.88 190.02 84.5 209.8 56.5 M 136.98 140.27 C 163 105.86 192.77 74.57 209.8 56.5 M 141.97 140.63 C 157.76 122.76 174.76 97.11 210.2 62.14 M 141.97 140.63 C 163.7 116.01 182.53 92.91 210.2 62.14 M 147.61 140.24 C 158.23 127.58 172.84 104.35 209.94 68.54 M 147.61 140.24 C 168.29 114.1 192.1 90.01 209.94 68.54 M 152.6 140.6 C 168.27 127.13 180.73 110.75 210.33 74.18 M 152.6 140.6 C 169.09 121.49 185.54 100.12 210.33 74.18 M 158.24 140.2 C 172.25 125.77 177.32 116.01 210.07 80.58 M 158.24 140.2 C 173.16 127.52 182.49 111.37 210.07 80.58 M 163.23 140.56 C 176.98 122.95 188.7 108.55 209.81 86.98 M 163.23 140.56 C 179.76 118.92 198.81 99.05 209.81 86.98 M 168.87 140.17 C 177.08 128.16 191 114.42 210.2 92.62 M 168.87 140.17 C 176.6 130.26 186.24 121.6 210.2 92.62 M 173.86 140.53 C 186.38 131.55 195.11 119.35 209.94 99.02 M 173.86 140.53 C 186.36 129.21 198.16 114.73 209.94 99.02 M 179.5 140.13 C 190.85 131.07 196.72 116.49 210.34 104.66 M 179.5 140.13 C 192.35 128.3 201 114.3 210.34 104.66 M 184.49 140.49 C 187.31 135.52 194.31 122.86 210.07 111.06 M 184.49 140.49 C 193.14 133.21 199.64 122.35 210.07 111.06 M 189.47 140.85 C 198.36 135.35 205.76 121.74 209.81 117.46 M 189.47 140.85 C 196.3 134.58 203.11 127.45 209.81 117.46 M 196.43 138.95 C 197.15 130.57 207.05 128.68 209.55 123.86 M 196.43 138.95 C 198.33 136.29 204.91 131.58 209.55 123.86" fill="none" stroke="#dae8fc" stroke-width="0.5" stroke-linejoin="round" stroke-linecap="round" stroke-miterlimit="10" pointer-events="all" style="stroke: light-dark(rgb(218, 232, 252), rgb(29, 41, 59));"/><path d="M 21 0 C 55.25 3.36 87.88 4.04 189 0 M 21 0 C 70.16 -0.54 123.53 -0.75 189 0 M 189 0 C 202.24 2.79 206.14 5.89 210 21 M 189 0 C 203.39 -4.55 207.28 10.36 210 21 M 210 21 C 208.33 41.14 208.53 64.86 210 119 M 210 21 C 208.18 52.57 211.09 88.89 210 119 M 210 119 C 207.64 130.84 206.39 141.88 189 140 M 210 119 C 213.57 129.5 204.67 139.47 189 140 M 189 140 C 141.76 141.4 90.18 136.74 21 140 M 189 140 C 139.97 139.49 88.24 141.76 21 140 M 21 140 C 5.56 136.86 -0.82 135.53 0 119 M 21 140 C 8.22 141.72 -0.03 134.98 0 119 M 0 119 C -3.18 85.64 1.77 57.95 0 21 M 0 119 C -1.64 91.49 -1.85 66.54 0 21 M 0 21 C 3.49 10.42 4.55 -2.49 21 0 M 0 21 C 4.07 3.14 3.05 0.08 21 0" fill="none" stroke="#6c8ebf" stroke-linejoin="round" stroke-linecap="round" stroke-miterlimit="10" pointer-events="all" style="stroke: light-dark(rgb(108, 142, 191), rgb(92, 121, 163));"/></g><g><g transform="translate(-0.5 -0.5)"><switch><foreignObject style="overflow: visible; text-align: left;" pointer-events="none" width="100%" height="100%" requiredFeatures="http://www.w3.org/TR/SVG11/feature#Extensibility"><div xmlns="http://www.w3.org/1999/xhtml" style="display: flex; align-items: unsafe flex-start; justify-content: unsafe flex-start; width: 188px; height: 1px; padding-top: 37px; margin-left: 12px;"><div style="box-sizing: border-box; font-size: 0; text-align: left; color: #000000; "><div style="display: inline-block; font-size: 12px; font-family: &quot;Helvetica&quot;; color: light-dark(#000000, #ffffff); line-height: 1.2; pointer-events: all; white-space: normal; word-wrap: normal; "><b>"Antragsmappe" =</b><br />Grundbuchdaten, Baujahr,<br />Wohnfläche, Energieausweis,<br />Flurkarte<br /><br /><i>→ technisch / detailliert</i></div></div></div></foreignObject><text x="12" y="49" fill="light-dark(#000000, #ffffff)" font-family="&quot;Helvetica&quot;" font-size="12px">"Antragsmappe" =...</text></switch></g></g><g><rect x="0" y="0" width="320" height="30" fill="none" stroke="none" pointer-events="all"/></g><g><g transform="translate(-0.5 -0.5)"><switch><foreignObject style="overflow: visible; text-align: left;" pointer-events="none" width="100%" height="100%" requiredFeatures="http://www.w3.org/TR/SVG11/feature#Extensibility"><div xmlns="http://www.w3.org/1999/xhtml" style="display: flex; align-items: unsafe center; justify-content: unsafe flex-start; width: 304px; height: 1px; padding-top: 15px; margin-left: 12px;"><div style="box-sizing: border-box; font-size: 0; text-align: left; max-height: 26px; overflow: hidden; color: #000000; "><div style="display: inline-block; font-size: 13px; font-family: &quot;Helvetica&quot;; color: light-dark(#000000, #ffffff); line-height: 1.2; pointer-events: all; font-weight: bold; white-space: normal; word-wrap: normal; "><b>BC: Antragstellung</b></div></div></div></foreignObject><text x="12" y="19" fill="light-dark(#000000, #ffffff)" font-family="&quot;Helvetica&quot;" font-size="13px" font-weight="bold">BC: Antragstellung</text></switch></g></g><g><rect x="230" y="0" width="200" height="140" rx="21" ry="21" fill="none" stroke="none" pointer-events="all"/><path d="M 235.01 5.53 C 235.01 5.53 235.01 5.53 235.01 5.53 M 235.01 5.53 C 235.01 5.53 235.01 5.53 235.01 5.53 M 230.81 16.46 C 236.21 11.78 243.86 4.02 243.93 1.36 M 230.81 16.46 C 236.69 9.9 241.15 4.24 243.93 1.36 M 230.55 22.86 C 238.16 15.08 237.73 8.75 249.57 0.97 M 230.55 22.86 C 234.42 18.31 237.57 12.72 249.57 0.97 M 230.94 28.5 C 237.38 20.9 241.98 11.5 255.22 0.57 M 230.94 28.5 C 238.95 20.63 245.74 8.18 255.22 0.57 M 230.68 34.9 C 243.29 20.13 257.26 9.15 260.86 0.18 M 230.68 34.9 C 242.19 24.65 252.54 11.73 260.86 0.18 M 230.42 41.29 C 241.82 32.39 244.93 20.72 265.85 0.54 M 230.42 41.29 C 239.74 29.28 251.85 19.53 265.85 0.54 M 230.81 46.94 C 240.53 30.39 255.45 19.04 271.49 0.14 M 230.81 46.94 C 248.39 26.94 263.28 11.25 271.49 0.14 M 230.55 53.33 C 249.66 33.62 266.6 14.39 276.48 0.5 M 230.55 53.33 C 245.52 35.13 261.09 16.76 276.48 0.5 M 230.95 58.98 C 240.36 47.98 259.04 33.56 282.12 0.11 M 230.95 58.98 C 244.49 41.33 260.44 24.18 282.12 0.11 M 230.68 65.38 C 248.84 45.84 263.16 33.84 287.11 0.47 M 230.68 65.38 C 251.44 41.81 267.11 20.73 287.11 0.47 M 230.42 71.77 C 250.88 45.47 273.76 28.18 292.75 0.08 M 230.42 71.77 C 248.33 48.8 272.85 25.4 292.75 0.08 M 230.82 77.42 C 251.34 55.1 272.54 30.42 297.74 0.44 M 230.82 77.42 C 253.33 51.42 273.53 28.69 297.74 0.44 M 230.56 83.81 C 247.1 61.28 268.3 36.32 303.38 0.04 M 230.56 83.81 C 257.01 51.24 285.36 16.9 303.38 0.04 M 230.29 90.21 C 252.05 63.58 271.63 44.95 308.37 0.4 M 230.29 90.21 C 254.83 64.5 274.87 41.31 308.37 0.4 M 230.69 95.85 C 258.27 69.06 281.22 46.27 314.01 0.01 M 230.69 95.85 C 256.89 67.58 280.3 38.58 314.01 0.01 M 230.43 102.25 C 260.61 71.1 285.92 44.99 319 0.37 M 230.43 102.25 C 246.7 80.93 265.42 62.52 319 0.37 M 230.82 107.9 C 261.6 77.4 290.75 43.98 323.98 0.73 M 230.82 107.9 C 253.48 81.19 278.54 55.41 323.98 0.73 M 230.56 114.29 C 270.82 69.72 308.94 24.81 329.63 0.33 M 230.56 114.29 C 253.83 88.86 273.63 62.02 329.63 0.33 M 230.3 120.69 C 250.05 95.07 274.38 65.36 334.61 0.69 M 230.3 120.69 C 252.03 93.99 277.62 68.04 334.61 0.69 M 231.35 125.58 C 262.41 96.06 288.98 59.16 340.26 0.3 M 231.35 125.58 C 258.66 97.89 281.6 69.89 340.26 0.3 M 233.06 129.71 C 260.93 96.1 285.25 59.57 345.24 0.66 M 233.06 129.71 C 270.58 83.44 308.32 37.93 345.24 0.66 M 234.76 133.85 C 275.18 85.89 308.94 44.2 350.89 0.26 M 234.76 133.85 C 267.93 93.7 303.47 50.18 350.89 0.26 M 237.78 136.47 C 279.18 86.95 324.32 43.63 355.87 0.62 M 237.78 136.47 C 277.39 85.81 321.14 34.75 355.87 0.62 M 241.46 138.34 C 281.36 90.45 323.29 38.71 361.52 0.23 M 241.46 138.34 C 278.63 99.29 313.33 54.5 361.52 0.23 M 246.44 138.7 C 296.48 89.31 339.5 31.27 366.5 0.59 M 246.44 138.7 C 283.86 92.36 323.29 47.95 366.5 0.59 M 250.78 139.82 C 278.76 107.76 307.82 82.79 372.15 0.19 M 250.78 139.82 C 273.63 107.09 302.01 74.24 372.15 0.19 M 255.76 140.18 C 299.46 83.16 346.36 39.33 377.13 0.55 M 255.76 140.18 C 288.16 101.78 324.78 58.36 377.13 0.55 M 260.75 140.54 C 305.04 88.02 351.77 37.24 382.78 0.16 M 260.75 140.54 C 295.02 104.93 325.38 71.01 382.78 0.16 M 266.39 140.14 C 295.97 106.33 324.56 73.04 387.76 0.52 M 266.39 140.14 C 296.15 103.33 330.5 66.94 387.76 0.52 M 271.38 140.5 C 309.44 92.05 349.89 43.55 393.41 0.13 M 271.38 140.5 C 313.35 91.07 359.25 41.71 393.41 0.13 M 277.02 140.11 C 310.97 104.07 335.98 69.69 398.39 0.49 M 277.02 140.11 C 304.99 103.66 337.36 71.82 398.39 0.49 M 282.01 140.47 C 304.9 105.95 333.33 77.97 404.04 0.09 M 282.01 140.47 C 309.22 104.62 337.3 72.52 404.04 0.09 M 287 140.83 C 318.03 114.47 341.84 85.35 409.02 0.45 M 287 140.83 C 330.16 86.3 376.92 32.61 409.02 0.45 M 292.64 140.43 C 314.62 112.05 343.1 79.1 413.35 1.57 M 292.64 140.43 C 340.04 88.04 383.12 33.82 413.35 1.57 M 297.63 140.79 C 328.55 106.01 364.64 69.05 418.34 1.93 M 297.63 140.79 C 343.33 89.43 387.3 33.26 418.34 1.93 M 303.27 140.4 C 334.38 95.38 376.12 57.82 422.02 3.8 M 303.27 140.4 C 335.81 106.36 364.28 73.97 422.02 3.8 M 308.26 140.76 C 338.58 106.38 371.2 66.28 425.04 6.42 M 308.26 140.76 C 349.14 92.37 389.22 42.36 425.04 6.42 M 313.9 140.36 C 352.96 95.29 389.25 49.71 427.4 9.8 M 313.9 140.36 C 343.56 106.36 373.53 69.4 427.4 9.8 M 318.89 140.72 C 344.57 112.62 369.41 80.62 428.45 14.69 M 318.89 140.72 C 358.72 95.85 397.96 50.45 428.45 14.69 M 324.53 140.33 C 364.62 98.19 401.75 57.99 429.5 19.58 M 324.53 140.33 C 350.5 110.11 373.1 81.8 429.5 19.58 M 329.52 140.69 C 357.53 112.2 380.58 81.08 430.55 24.46 M 329.52 140.69 C 348.06 118.82 369.57 94.01 430.55 24.46 M 335.16 140.29 C 358.8 106.94 390.55 76.65 430.29 30.86 M 335.16 140.29 C 365.37 107.69 392.48 72.89 430.29 30.86 M 340.15 140.65 C 361.35 117.37 377.17 95.58 430.68 36.5 M 340.15 140.65 C 366.33 106.8 394.73 73.97 430.68 36.5 M 345.79 140.26 C 377.92 104.8 407.88 61.21 430.42 42.9 M 345.79 140.26 C 364.58 118.23 381.4 99.33 430.42 42.9 M 350.78 140.62 C 371.63 116.94 396.17 90.85 430.82 48.55 M 350.78 140.62 C 370.2 119.83 389.33 96.45 430.82 48.55 M 356.42 140.23 C 373.03 114.7 393.58 93.02 430.55 54.94 M 356.42 140.23 C 376.69 116.32 395.16 91.85 430.55 54.94 M 361.41 140.59 C 387.59 105.79 414.92 79.13 430.29 61.34 M 361.41 140.59 C 383.86 113.56 403.58 89.77 430.29 61.34 M 367.05 140.19 C 385.65 123.3 400.88 96.84 430.69 66.98 M 367.05 140.19 C 385.91 113.87 408.42 92.81 430.69 66.98 M 372.04 140.55 C 392.37 113.45 418.69 91.19 430.43 73.38 M 372.04 140.55 C 384.63 122.63 398.14 107.51 430.43 73.38 M 377.68 140.16 C 394.38 123.89 405.07 104.89 430.82 79.02 M 377.68 140.16 C 388.64 126.78 399.93 112.09 430.82 79.02 M 382.67 140.52 C 398.57 129.69 410.19 112.37 430.56 85.42 M 382.67 140.52 C 397.2 125.06 408.33 109.43 430.56 85.42 M 388.31 140.12 C 398.5 124.6 413.14 111.59 430.3 91.82 M 388.31 140.12 C 404.42 123.37 418.38 104.59 430.3 91.82 M 393.3 140.48 C 408.08 124.77 418.69 109.14 430.69 97.46 M 393.3 140.48 C 406.29 125.52 418.06 113.51 430.69 97.46 M 398.28 140.84 C 413.48 126.72 421.3 114.73 430.43 103.86 M 398.28 140.84 C 408.78 128.25 421.63 114.7 430.43 103.86 M 403.93 140.45 C 407.05 135.04 418.57 125.95 430.83 109.5 M 403.93 140.45 C 413.14 129.88 419.05 121.96 430.83 109.5 M 409.57 140.05 C 414.62 130.2 424.71 130.14 430.56 115.9 M 409.57 140.05 C 415.05 132.89 421.8 124.93 430.56 115.9 M 415.87 138.9 C 423.73 130.78 420.43 127.13 429.65 123.05 M 415.87 138.9 C 419.09 135.66 425.38 130.61 429.65 123.05" fill="none" stroke="#fff2cc" stroke-width="0.5" stroke-linejoin="round" stroke-linecap="round" stroke-miterlimit="10" pointer-events="all" style="stroke: light-dark(rgb(255, 242, 204), rgb(40, 29, 0));"/><path d="M 251 0 C 278.68 -2.14 312.6 -0.66 409 0 M 251 0 C 289.06 2.92 328.85 -0.43 409 0 M 409 0 C 425.05 -3.09 429.66 4.4 430 21 M 409 0 C 424.18 -2.31 431.14 8.09 430 21 M 430 21 C 428.59 45.57 427.04 76.64 430 119 M 430 21 C 431.14 53.25 429.06 82.42 430 119 M 430 119 C 430.02 132.44 420.32 143 409 140 M 430 119 C 426.81 129.75 419.22 142.71 409 140 M 409 140 C 355.87 140.45 310.1 143.88 251 140 M 409 140 C 357.14 141.95 303.24 141.64 251 140 M 251 140 C 236.01 143.71 228.47 129.64 230 119 M 251 140 C 236.34 141.65 229.41 135.37 230 119 M 230 119 C 233.01 87.1 229.88 65 230 21 M 230 119 C 229.59 98.67 230.26 77.1 230 21 M 230 21 C 227.23 10.4 236.35 0.28 251 0 M 230 21 C 231.59 4.05 237.1 -0.03 251 0" fill="none" stroke="#d6b656" stroke-linejoin="round" stroke-linecap="round" stroke-miterlimit="10" pointer-events="all" style="stroke: light-dark(rgb(214, 182, 86), rgb(109, 81, 0));"/></g><g><g transform="translate(-0.5 -0.5)"><switch><foreignObject style="overflow: visible; text-align: left;" pointer-events="none" width="100%" height="100%" requiredFeatures="http://www.w3.org/TR/SVG11/feature#Extensibility"><div xmlns="http://www.w3.org/1999/xhtml" style="display: flex; align-items: unsafe flex-start; justify-content: unsafe flex-start; width: 178px; height: 1px; padding-top: 37px; margin-left: 242px;"><div style="box-sizing: border-box; font-size: 0; text-align: left; color: #000000; "><div style="display: inline-block; font-size: 12px; font-family: &quot;Helvetica&quot;; color: light-dark(#000000, #ffffff); line-height: 1.2; pointer-events: all; white-space: normal; word-wrap: normal; "><b>"Antragsmappe" =</b><br />Bescheid-Unterlagen, Headline,<br />Empfaenger, Versandkanal,<br />Auszahlungsstatus<br /><br /><i>→ empfaengerorientiert</i></div></div></div></foreignObject><text x="242" y="49" fill="light-dark(#000000, #ffffff)" font-family="&quot;Helvetica&quot;" font-size="12px">"Antragsmappe" =...</text></switch></g></g><g><rect x="230" y="0" width="320" height="30" fill="none" stroke="none" pointer-events="all"/></g><g><g transform="translate(-0.5 -0.5)"><switch><foreignObject style="overflow: visible; text-align: left;" pointer-events="none" width="100%" height="100%" requiredFeatures="http://www.w3.org/TR/SVG11/feature#Extensibility"><div xmlns="http://www.w3.org/1999/xhtml" style="display: flex; align-items: unsafe center; justify-content: unsafe flex-start; width: 304px; height: 1px; padding-top: 15px; margin-left: 242px;"><div style="box-sizing: border-box; font-size: 0; text-align: left; max-height: 26px; overflow: hidden; color: #000000; "><div style="display: inline-block; font-size: 13px; font-family: &quot;Helvetica&quot;; color: light-dark(#000000, #ffffff); line-height: 1.2; pointer-events: all; font-weight: bold; white-space: normal; word-wrap: normal; "><b>BC: Auszahlung</b></div></div></div></foreignObject><text x="242" y="19" fill="light-dark(#000000, #ffffff)" font-family="&quot;Helvetica&quot;" font-size="13px" font-weight="bold">BC: Auszahlung</text></switch></g></g></g><switch><g requiredFeatures="http://www.w3.org/TR/SVG11/feature#Extensibility"/><a transform="translate(0,-5)" xlink:href="https://www.drawio.com/doc/faq/svg-export-text-problems" target="_blank"><text text-anchor="middle" font-size="10px" x="50%" y="100%">Text is not SVG - cannot display</text></a></switch></svg>