<svg xmlns="http://www.w3.org/2000/svg" style="background: transparent; background-color: transparent;" xmlns:xlink="http://www.w3.org/1999/xlink" version="1.1" width="1003px" height="163px" viewBox="-0.5 -0.5 1003 163" content="&lt;mxfile&gt;&lt;diagram name=&quot;BC Module Deployment Unit&quot; id=&quot;bc-modul-deploy-1&quot;&gt;5VdRb9owEP41kbaHSpDQlFdIS6dplaqhac+OfXE8nBg5ToD9+p0dhwBJq0rr1KrjBfu78/l83+fDBFFS7O812eYPioEMwgnbB9FtEIbTSRzhl0UOHTK7aRGuBfNYD6zFb+gcPVoLBtWZo1FKGrE9B6kqS6DmDCNaq925W6bk+a5bwmEArCmRQ/SnYCb3aDiZ9IYvIHjut77uDAXpnD1Q5YSp3QkU3QVRopUy7ajYJyBt9bq6tOtWT1iPiWkozUsWpPQqVft2VUNk7Q8YhLHE9UsmGhxyO+ygdADoSwS3G3gh9lywpapLBgyzSFRpYG+ei9Xv+KkymhjgoqL5586cH82PWqUSCk3qIrCFWA0jfAuSKFjGVV3yqvVztJhDx7X2mUW3U3Tf5cLAekuote5Q3nY/U0hvzoSUiZJKu7URu4Y5myGOaaoNnFjmYRrF8dHSqSi0MbAAXvLTG5w3oI1A7S2k4CWChWDMJrckHqDINWDcpULXTDo52URs9A0YmvvkaK0bWAljRMk99Etw7g4auvJeasfLyWYA+xPIa+keVAFGH9DFW+de1ofjjWjnu/6WhDOP5ScXZBp7kPibyY+he/HiwOt3XMuFYrV8H3J+sKm8UMIJ9scR7X4lDbl6JEhgECbDZeuttjSGE7eVwOq+qnAJzDM6JtyYziHNPpxwZ/FbKpfBVqrD+5DurculsKUMJz9K8dJOvMBSZ2RjxqS8+O407Ho7ESVyPibpB0G1qkA3AkX6mmrOsiyko2pmcRpff8A2PHtLNbsX1hW+LIq2Cw4UfUEtMHxc+anSJldclUTe9eiQt/YzyhuUbGETwGkqFd200MoR4Yr9OmRUqtYUho8oQzQHM/qDZM/5LHsaJDGiOX9k/j0TbRptj/kP2Lio+ikhl332nzOC0/4t72wnf4miuz8=&lt;/diagram&gt;&lt;/mxfile&gt;"><defs/><g><g><rect x="1" y="1" width="240" height="160" rx="24" ry="24" fill="none" stroke="none" pointer-events="all"/><path d="M 7.3 6.65 C 7.3 6.65 7.3 6.65 7.3 6.65 M 7.3 6.65 C 7.3 6.65 7.3 6.65 7.3 6.65 M 1.53 25.48 C 9.64 16.66 20.75 6.7 22.53 1.33 M 1.53 25.48 C 8.9 15.67 19.63 5.82 22.53 1.33 M 1.67 37.53 C 5.55 27.3 12.95 20.59 33.16 1.3 M 1.67 37.53 C 9.05 29.34 16.31 21.27 33.16 1.3 M 1.14 50.32 C 15.62 39.18 21.09 24.05 43.79 1.26 M 1.14 50.32 C 15.39 31.8 31.87 13.96 43.79 1.26 M 1.28 62.36 C 13.8 45.43 31.25 22.29 54.42 1.23 M 1.28 62.36 C 15.66 44.96 32.29 26.42 54.42 1.23 M 1.41 74.4 C 22 48.84 42.88 25.15 65.05 1.2 M 1.41 74.4 C 26.44 45.23 51.23 19.03 65.05 1.2 M 1.54 86.44 C 18.92 62.45 43.1 38.02 75.68 1.16 M 1.54 86.44 C 21.5 63.17 42.91 37.6 75.68 1.16 M 1.02 99.24 C 28.15 65.18 50.04 35.32 86.31 1.13 M 1.02 99.24 C 23.05 68.37 49.25 40.6 86.31 1.13 M 1.15 111.28 C 28.32 79.43 49.52 50.43 96.94 1.09 M 1.15 111.28 C 32.76 74.85 64.01 38.79 96.94 1.09 M 1.29 123.32 C 42.47 78.06 87.34 29.59 107.57 1.06 M 1.29 123.32 C 30.97 89.42 60.22 52.16 107.57 1.06 M 1.42 135.36 C 42.53 84.91 95.3 33.3 118.2 1.02 M 1.42 135.36 C 42.65 82.57 88.27 34.16 118.2 1.02 M 2.86 145.89 C 28.38 114.77 58.38 85.07 128.83 0.99 M 2.86 145.89 C 47.77 89.74 99.14 36.52 128.83 0.99 M 6.28 154.16 C 31.9 122.8 59.25 90.56 139.46 0.95 M 6.28 154.16 C 45.93 113.3 82.19 69.28 139.46 0.95 M 12.97 158.65 C 69.04 97.27 124.34 34.43 150.09 0.92 M 12.97 158.65 C 40.32 124.97 67.84 93.95 150.09 0.92 M 21.63 160.88 C 55.97 122.85 84.72 90.21 160.72 0.89 M 21.63 160.88 C 50.36 128.58 81.76 94.84 160.72 0.89 M 31.61 161.6 C 89.86 100.59 143.66 31.65 170.69 1.61 M 31.61 161.6 C 79.85 104.93 128.73 47.3 170.69 1.61 M 42.24 161.57 C 74.49 131.52 102.3 97.58 181.32 1.57 M 42.24 161.57 C 79.64 122.53 117.14 80.98 181.32 1.57 M 52.87 161.53 C 91.69 119.38 125.3 83.11 191.95 1.54 M 52.87 161.53 C 93.87 119.61 129.72 77.2 191.95 1.54 M 63.5 161.5 C 105.01 116.15 145.89 67.73 202.58 1.5 M 63.5 161.5 C 112.44 110.15 158.73 56.03 202.58 1.5 M 74.13 161.47 C 124.79 103.18 177.18 43.34 213.21 1.47 M 74.13 161.47 C 121.03 109.52 169.42 51.93 213.21 1.47 M 84.76 161.43 C 135.23 102.26 190.06 40.75 222.53 2.94 M 84.76 161.43 C 138.31 104.36 189.16 48.72 222.53 2.94 M 95.39 161.4 C 125.55 129.09 152.96 98.17 231.85 4.42 M 95.39 161.4 C 123.48 127.25 154.22 94.98 231.85 4.42 M 106.02 161.36 C 131.24 129.58 160.12 95.6 237.23 10.42 M 106.02 161.36 C 137.98 124.91 175.33 84.11 237.23 10.42 M 116.65 161.33 C 167.98 108.88 213.41 52.52 239.99 19.44 M 116.65 161.33 C 154.5 125.02 187.11 86.34 239.99 19.44 M 127.28 161.29 C 165.57 117.28 208.67 68.36 241.43 29.97 M 127.28 161.29 C 163.76 115.68 203.43 72.93 241.43 29.97 M 137.91 161.26 C 174.29 118.09 210.75 78.9 241.56 42.01 M 137.91 161.26 C 175.36 117.49 211.74 76.98 241.56 42.01 M 148.54 161.22 C 176.17 129.14 204.72 92.5 241.7 54.06 M 148.54 161.22 C 178.12 126.97 207.61 91.38 241.7 54.06 M 159.17 161.19 C 189.55 129.72 219.13 92.31 241.18 66.85 M 159.17 161.19 C 178.61 134 199.39 112.2 241.18 66.85 M 169.8 161.16 C 187.89 144.96 206.59 119.11 241.31 78.89 M 169.8 161.16 C 190.47 134.57 214.86 107.33 241.31 78.89 M 180.43 161.12 C 201.86 133.02 224.7 107.68 241.44 90.93 M 180.43 161.12 C 193.91 146.7 206.39 129.78 241.44 90.93 M 191.06 161.09 C 203.91 143.66 215.23 127.89 241.57 102.97 M 191.06 161.09 C 202.33 148.39 215.95 134.1 241.57 102.97 M 201.69 161.05 C 217.57 144.62 227.72 133.21 241.71 115.01 M 201.69 161.05 C 212.81 150.44 219.74 141.5 241.71 115.01 M 212.32 161.02 C 216.3 152.91 226.53 143.92 241.18 127.81 M 212.32 161.02 C 219.43 154.21 222.12 146.87 241.18 127.81 M 224.26 159.47 C 229.53 149.92 235.57 146.21 240.01 141.36 M 224.26 159.47 C 227.44 151.94 232.84 145.5 240.01 141.36" fill="none" stroke="#d5e8d4" stroke-linejoin="round" stroke-linecap="round" stroke-miterlimit="10" pointer-events="all" style="stroke: light-dark(rgb(213, 232, 212), rgb(31, 47, 30));"/><path d="M 25 1 C 68.96 0.01 104.83 2.81 217 1 M 25 1 C 64.54 2.5 101.97 5.82 217 1 M 217 1 C 234.86 2.45 240.97 10.95 241 25 M 217 1 C 234.3 1.64 244.04 12.13 241 25 M 241 25 C 239.74 59.19 244.32 95.51 241 137 M 241 25 C 240.26 60.79 241.4 97 241 137 M 241 137 C 240.97 154.77 236.49 161.9 217 161 M 241 137 C 243.1 149.13 232.75 164.35 217 161 M 217 161 C 154.68 160.13 94.58 158.51 25 161 M 217 161 C 155.75 163.07 90.75 161.47 25 161 M 25 161 C 11.23 163.27 -1.91 155.88 1 137 M 25 161 C 5.59 156.47 -0.89 148.72 1 137 M 1 137 C 2.18 91.68 -2.79 51.1 1 25 M 1 137 C 0.98 100.3 -0.37 65.85 1 25 M 1 25 C 0.3 9.58 7.91 2.98 25 1 M 1 25 C 1.43 6.07 8.41 3.23 25 1" fill="none" stroke="#82b366" stroke-width="2" stroke-linejoin="round" stroke-linecap="round" stroke-miterlimit="10" pointer-events="all" style="stroke: light-dark(rgb(130, 179, 102), rgb(68, 110, 44));"/></g><g><g transform="translate(-0.5 -0.5)"><switch><foreignObject style="overflow: visible; text-align: left;" pointer-events="none" width="100%" height="100%" requiredFeatures="http://www.w3.org/TR/SVG11/feature#Extensibility"><div xmlns="http://www.w3.org/1999/xhtml" style="display: flex; align-items: unsafe center; justify-content: unsafe center; width: 242px; height: 160px; padding-top: 1px; margin-left: 0px;"><div style="box-sizing: border-box; font-size: 0; text-align: center; width: 240px; height: 160px; overflow: hidden; color: #000000; "><div style="display: inline-block; font-size: 17px; font-family: &quot;Helvetica&quot;; color: light-dark(#000000, #ffffff); line-height: 1.2; pointer-events: all; width: 100%; height: 100%; white-space: normal; word-wrap: normal; "><div><b><br /></b></div><b>Bounded Context</b><br />(strategisch)<hr />Problemraum /<br />Lösungsraum</div></div></div></foreignObject><text x="121" y="86" fill="light-dark(#000000, #ffffff)" font-family="&quot;Helvetica&quot;" font-size="17px" text-anchor="middle">Bounded Context...</text></switch></g></g><g><rect x="381" y="1" width="240" height="160" rx="24" ry="24" fill="none" stroke="none" pointer-events="all"/><path d="M 387.11 6.88 C 387.11 6.88 387.11 6.88 387.11 6.88 M 387.11 6.88 C 387.11 6.88 387.11 6.88 387.11 6.88 M 384.61 21.94 C 387.16 19.36 398.27 10.99 398.39 6.09 M 384.61 21.94 C 386.18 16.47 392.05 15.63 398.39 6.09 M 384.75 33.98 C 394.14 25.84 399.4 14.42 409.68 5.3 M 384.75 33.98 C 391.35 27.39 396.26 23.17 409.68 5.3 M 384.22 46.78 C 396.85 31.24 404.22 24.46 420.31 5.27 M 384.22 46.78 C 390.84 37.53 400.22 27.72 420.31 5.27 M 384.36 58.82 C 402.75 42.51 418.51 23.85 430.94 5.23 M 384.36 58.82 C 400.22 40.13 417.79 20.6 430.94 5.23 M 384.49 70.86 C 401.42 47.22 423.75 28.94 441.57 5.2 M 384.49 70.86 C 402.58 49.77 422.57 27.33 441.57 5.2 M 383.97 83.65 C 411.14 59.87 428.88 30.41 452.2 5.16 M 383.97 83.65 C 400.52 65.17 415.81 49.01 452.2 5.16 M 384.1 95.69 C 417.64 65.04 444.07 31.45 462.83 5.13 M 384.1 95.69 C 406.18 71.44 426.03 47.55 462.83 5.13 M 384.23 107.73 C 400.93 87.09 425.88 57.62 473.46 5.09 M 384.23 107.73 C 407.2 82.1 427.88 56.44 473.46 5.09 M 384.37 119.78 C 415.81 80.59 450.45 40.52 484.09 5.06 M 384.37 119.78 C 417.09 84.22 450.54 45.14 484.09 5.06 M 383.84 132.57 C 414.71 97.43 439.15 68.02 494.72 5.02 M 383.84 132.57 C 418.94 95.97 451.28 56.95 494.72 5.02 M 386.6 141.59 C 411.91 107.88 443.18 73.89 505.35 4.99 M 386.6 141.59 C 422.27 98.23 456.28 58.16 505.35 4.99 M 386.73 153.63 C 424.16 104.9 461.69 66.47 515.98 4.96 M 386.73 153.63 C 430.5 105.4 475.15 53.49 515.98 4.96 M 392.12 159.64 C 442.31 102.68 497.52 37.14 526.61 4.92 M 392.12 159.64 C 424.62 117.94 457.59 81.57 526.61 4.92 M 401.43 161.11 C 446.62 113.81 489.86 58.85 537.24 4.89 M 401.43 161.11 C 445.01 110.5 491.67 56.96 537.24 4.89 M 408.78 164.85 C 462.23 104.19 517.28 40.06 547.87 4.85 M 408.78 164.85 C 448.24 120.45 487.87 72.42 547.87 4.85 M 419.41 164.82 C 476.37 101.61 525.42 39.39 558.5 4.82 M 419.41 164.82 C 450.54 128.24 484.38 92.26 558.5 4.82 M 430.04 164.78 C 468 115.01 517.52 66.44 568.47 5.54 M 430.04 164.78 C 461.25 129.04 492.3 97.46 568.47 5.54 M 440.67 164.75 C 471.2 128.95 505.13 90.11 579.1 5.5 M 440.67 164.75 C 482.87 114.71 524.12 66.05 579.1 5.5 M 451.3 164.71 C 490.56 124.39 531.78 74.78 589.73 5.47 M 451.3 164.71 C 485.51 121.93 520.97 82.29 589.73 5.47 M 461.93 164.68 C 504.62 109.03 553.88 59.3 601.02 4.68 M 461.93 164.68 C 492.61 133.46 522.68 96.85 601.02 4.68 M 472.56 164.64 C 502.63 126.95 534.88 90.68 611.65 4.65 M 472.56 164.64 C 519.11 108.76 568.29 51.23 611.65 4.65 M 483.19 164.61 C 527.75 118.09 567.64 66.13 617.69 9.89 M 483.19 164.61 C 535.49 106.04 586.97 45.14 617.69 9.89 M 493.82 164.57 C 544.35 110.05 586.55 57.81 623.72 15.14 M 493.82 164.57 C 529.16 122.55 563.52 82.24 623.72 15.14 M 504.45 164.54 C 528.52 138.29 560.14 105.47 623.86 27.18 M 504.45 164.54 C 529.97 134.85 555.04 105 623.86 27.18 M 515.08 164.51 C 538.55 139.19 557.4 114.96 623.99 39.22 M 515.08 164.51 C 541.01 129.44 570.97 96.46 623.99 39.22 M 525.71 164.47 C 561.38 121.76 590.27 85.84 623.47 52.02 M 525.71 164.47 C 553.04 133.54 576.43 105.1 623.47 52.02 M 536.35 164.44 C 569.62 126.56 602.26 87.1 623.6 64.06 M 536.35 164.44 C 556.69 140.44 575.32 117.84 623.6 64.06 M 546.98 164.4 C 563.84 147.69 580.55 126.34 623.73 76.1 M 546.98 164.4 C 568 145.34 586.09 124.21 623.73 76.1 M 557.61 164.37 C 582.11 144 602.31 121.21 623.87 88.14 M 557.61 164.37 C 585.62 134.28 607.93 103.72 623.87 88.14 M 568.24 164.33 C 586.2 147.02 598.23 121.97 624 100.18 M 568.24 164.33 C 580.45 147.47 592.6 133.71 624 100.18 M 578.87 164.3 C 585 154.62 598.02 140.31 623.48 112.98 M 578.87 164.3 C 593.34 146.56 610.32 128.27 623.48 112.98 M 589.5 164.26 C 599.1 151.13 612.25 136.27 623.61 125.02 M 589.5 164.26 C 600.87 151.49 610.87 143.11 623.61 125.02 M 600.13 164.23 C 609.92 159.78 614.07 146.78 622.43 138.57 M 600.13 164.23 C 604.95 158.37 611.4 153.02 622.43 138.57" fill="none" stroke="#dae8fc" stroke-linejoin="round" stroke-linecap="round" stroke-miterlimit="10" pointer-events="all" style="stroke: light-dark(rgb(218, 232, 252), rgb(29, 41, 59));"/><path d="M 405 1 C 472.1 2.66 544.85 8.44 597 1 M 405 1 C 476.59 -1.02 543.3 -0.09 597 1 M 597 1 C 611.3 -2.42 619.06 10.62 621 25 M 597 1 C 614.78 1.92 625.21 12.84 621 25 M 621 25 C 618.01 53.69 622.38 83.03 621 137 M 621 25 C 620.94 50.3 622.59 78.39 621 137 M 621 137 C 618.65 156.31 614.19 159.71 597 161 M 621 137 C 618.68 152.53 612.7 163.61 597 161 M 597 161 C 541.47 158.41 480.4 163.67 405 161 M 597 161 C 520.59 159.9 446.27 160.8 405 161 M 405 161 C 390.62 157.65 382.2 153.93 381 137 M 405 161 C 389.17 156.51 380.69 149.27 381 137 M 381 137 C 381.14 113.62 377.35 86.38 381 25 M 381 137 C 381.89 95.38 379.32 52.69 381 25 M 381 25 C 378.76 5.12 386.49 -2.14 405 1 M 381 25 C 380.5 13.17 388.48 1.7 405 1" fill="none" stroke="#6c8ebf" stroke-width="2" stroke-linejoin="round" stroke-linecap="round" stroke-miterlimit="10" pointer-events="all" style="stroke: light-dark(rgb(108, 142, 191), rgb(92, 121, 163));"/></g><g><g transform="translate(-0.5 -0.5)"><switch><foreignObject style="overflow: visible; text-align: left;" pointer-events="none" width="100%" height="100%" requiredFeatures="http://www.w3.org/TR/SVG11/feature#Extensibility"><div xmlns="http://www.w3.org/1999/xhtml" style="display: flex; align-items: unsafe center; justify-content: unsafe center; width: 242px; height: 160px; padding-top: 1px; margin-left: 380px;"><div style="box-sizing: border-box; font-size: 0; text-align: center; width: 240px; height: 160px; overflow: hidden; color: #000000; "><div style="display: inline-block; font-size: 17px; font-family: &quot;Helvetica&quot;; color: light-dark(#000000, #ffffff); line-height: 1.2; pointer-events: all; width: 100%; height: 100%; white-space: normal; word-wrap: normal; "><div><b><br /></b></div><b>Modul</b><br />(Code)<hr />Java-Paket,<br />Spring Modulith</div></div></div></foreignObject><text x="501" y="86" fill="light-dark(#000000, #ffffff)" font-family="&quot;Helvetica&quot;" font-size="17px" text-anchor="middle">Modul...</text></switch></g></g><g><rect x="761" y="1" width="240" height="160" rx="24" ry="24" fill="none" stroke="none" pointer-events="all"/><path d="M 766.91 7.11 C 766.91 7.11 766.91 7.11 766.91 7.11 M 766.91 7.11 C 766.91 7.11 766.91 7.11 766.91 7.11 M 761.14 25.94 C 765.42 18.29 768.02 11.44 782.13 1.79 M 761.14 25.94 C 769.13 16.92 776.89 10.72 782.13 1.79 M 761.27 37.98 C 769.89 21.86 781.63 15.47 793.42 1 M 761.27 37.98 C 768.95 30.34 779.22 20.74 793.42 1 M 761.4 50.02 C 770.84 35.84 784.59 24.22 804.05 0.97 M 761.4 50.02 C 770.64 40.92 779.38 30.06 804.05 0.97 M 761.53 62.06 C 775.79 52.29 780.52 38.61 814.68 0.93 M 761.53 62.06 C 780.22 38.48 799.36 16.9 814.68 0.93 M 761.01 74.86 C 780.9 49.52 796.77 31.54 825.31 0.9 M 761.01 74.86 C 777.2 57.39 794.72 38.88 825.31 0.9 M 761.14 86.9 C 791.25 52.21 822.2 19 835.94 0.86 M 761.14 86.9 C 782.59 59.3 802.63 35.89 835.94 0.86 M 761.28 98.94 C 784.92 72.52 803.46 49.99 845.91 1.58 M 761.28 98.94 C 789.25 67.71 819.75 32.46 845.91 1.58 M 761.41 110.98 C 781.14 87.31 811.59 59.41 856.54 1.55 M 761.41 110.98 C 784.8 87.78 806.1 61.62 856.54 1.55 M 760.89 123.78 C 783.45 102.89 806.69 78.09 867.17 1.51 M 760.89 123.78 C 789.26 88 819.88 53.24 867.17 1.51 M 761.02 135.82 C 789.31 103.23 816.91 71.34 877.8 1.48 M 761.02 135.82 C 784.54 106.15 812.78 77.03 877.8 1.48 M 763.12 145.59 C 790.2 109.48 821.88 76.34 888.43 1.45 M 763.12 145.59 C 805.75 95.82 850.82 46.45 888.43 1.45 M 766.54 153.86 C 799.1 117.68 833.32 80.76 899.06 1.41 M 766.54 153.86 C 793.14 119.29 825.91 81.61 899.06 1.41 M 773.23 158.36 C 806.93 119.26 843.81 76.4 909.69 1.38 M 773.23 158.36 C 812.46 111.22 851.39 65.85 909.69 1.38 M 781.89 160.59 C 810.37 127.41 839.53 94.21 920.32 1.34 M 781.89 160.59 C 821.7 121.4 857.88 79.03 920.32 1.34 M 791.87 161.31 C 822.21 130.98 851.77 90.09 930.95 1.31 M 791.87 161.31 C 845.79 100.39 898.29 38.81 930.95 1.31 M 802.5 161.27 C 856.86 105.93 904.37 48.26 941.58 1.27 M 802.5 161.27 C 841.31 115.58 880.9 69.93 941.58 1.27 M 813.13 161.24 C 858.59 111.51 902.73 62.35 952.21 1.24 M 813.13 161.24 C 862.52 104.96 916.36 45.74 952.21 1.24 M 823.76 161.2 C 880.98 96.78 933.56 39.43 962.84 1.2 M 823.76 161.2 C 863.52 119.6 904.94 72.83 962.84 1.2 M 834.39 161.17 C 865.83 125.56 901.12 83.38 973.47 1.17 M 834.39 161.17 C 876.92 113.83 918.17 67.95 973.47 1.17 M 845.02 161.13 C 896.91 103.96 949.41 42.41 982.79 2.64 M 845.02 161.13 C 902 98.6 955.02 36.96 982.79 2.64 M 855.65 161.1 C 895.62 109.25 939.84 58.88 991.45 4.87 M 855.65 161.1 C 889.47 121.66 925.87 78.07 991.45 4.87 M 866.28 161.06 C 914.47 102.66 959.76 51.49 997.49 10.12 M 866.28 161.06 C 913.54 105.2 964.13 49.96 997.49 10.12 M 876.91 161.03 C 921.15 103.59 974.3 47.45 1000.25 19.14 M 876.91 161.03 C 919.25 112.77 957.83 66.66 1000.25 19.14 M 887.54 161 C 931.62 113.14 979.06 58.07 1001.69 29.68 M 887.54 161 C 929.46 112.65 974.41 63.34 1001.69 29.68 M 898.17 160.96 C 924.67 126.65 944.69 98.9 1001.17 42.47 M 898.17 160.96 C 937.2 116.15 972.91 72.14 1001.17 42.47 M 908.8 160.93 C 941.71 122.7 978.4 83.31 1001.3 54.51 M 908.8 160.93 C 935.6 126.36 964.66 91.73 1001.3 54.51 M 919.43 160.89 C 938.36 139.45 959.13 110.58 1001.43 66.55 M 919.43 160.89 C 939.01 137.54 956.06 119.4 1001.43 66.55 M 929.4 161.61 C 942.85 144.35 963.74 126.97 1001.57 78.59 M 929.4 161.61 C 951.31 134.88 977 109.59 1001.57 78.59 M 940.03 161.58 C 960.95 134.8 988.92 107.87 1001.7 90.63 M 940.03 161.58 C 961.04 136.01 980.31 110.76 1001.7 90.63 M 950.66 161.54 C 961.88 146.82 970.95 133.31 1001.18 103.43 M 950.66 161.54 C 964.1 143.67 979.71 125.46 1001.18 103.43 M 961.29 161.51 C 970.44 147.14 984.11 142.93 1001.31 115.47 M 961.29 161.51 C 972.99 147.54 987.28 130.1 1001.31 115.47 M 971.92 161.47 C 983.81 154.21 985.84 138.41 1001.44 127.51 M 971.92 161.47 C 981.19 150.39 993.35 137.42 1001.44 127.51 M 983.86 159.93 C 988.65 155.19 992.16 144.4 1000.27 141.06 M 983.86 159.93 C 989.07 154.7 994.09 150.1 1000.27 141.06" fill="none" stroke="#fff2cc" stroke-linejoin="round" stroke-linecap="round" stroke-miterlimit="10" pointer-events="all" style="stroke: light-dark(rgb(255, 242, 204), rgb(40, 29, 0));"/><path d="M 785 1 C 849.62 -3.33 917.77 3.92 977 1 M 785 1 C 846.2 0.96 906.27 -0.94 977 1 M 977 1 C 993.54 -0.68 997.3 10.82 1001 25 M 977 1 C 997.48 -0.4 1000.16 11.12 1001 25 M 1001 25 C 999.71 61.38 1003.75 92.8 1001 137 M 1001 25 C 1003 62.02 1003.55 98.94 1001 137 M 1001 137 C 1004.69 156.97 989.67 157.83 977 161 M 1001 137 C 1002.64 148.65 994.05 159.49 977 161 M 977 161 C 939.36 163.87 898.62 163.52 785 161 M 977 161 C 929.73 160.65 880.18 157.6 785 161 M 785 161 C 770.85 159.18 762.35 153.6 761 137 M 785 161 C 768.14 165.13 756.67 149.37 761 137 M 761 137 C 761.89 91.92 765.62 53.58 761 25 M 761 137 C 759.64 98.88 759.85 63.02 761 25 M 761 25 C 762.67 11.3 766.56 -1.2 785 1 M 761 25 C 764.88 7.43 769.35 -2.62 785 1" fill="none" stroke="#d6b656" stroke-width="2" stroke-linejoin="round" stroke-linecap="round" stroke-miterlimit="10" pointer-events="all" style="stroke: light-dark(rgb(214, 182, 86), rgb(109, 81, 0));"/></g><g><g transform="translate(-0.5 -0.5)"><switch><foreignObject style="overflow: visible; text-align: left;" pointer-events="none" width="100%" height="100%" requiredFeatures="http://www.w3.org/TR/SVG11/feature#Extensibility"><div xmlns="http://www.w3.org/1999/xhtml" style="display: flex; align-items: unsafe center; justify-content: unsafe center; width: 242px; height: 160px; padding-top: 1px; margin-left: 760px;"><div style="box-sizing: border-box; font-size: 0; text-align: center; width: 240px; height: 160px; overflow: hidden; color: #000000; "><div style="display: inline-block; font-size: 17px; font-family: &quot;Helvetica&quot;; color: light-dark(#000000, #ffffff); line-height: 1.2; pointer-events: all; width: 100%; height: 100%; white-space: normal; word-wrap: normal; "><div><b><br /></b></div><b>Deployment Unit</b><br />(Artefakt)<hr />JAR, Container,<br />Microservice</div></div></div></foreignObject><text x="881" y="86" fill="light-dark(#000000, #ffffff)" font-family="&quot;Helvetica&quot;" font-size="17px" text-anchor="middle">Deployment Unit...</text></switch></g></g><g><path d="M 241 81 L 370.76 81" fill="none" stroke="none" pointer-events="stroke"/><path d="M 378.76 81 L 370.76 85 L 370.76 77 Z" fill="none" stroke="none" pointer-events="all"/><path d="M 241 81 C 289.17 81.74 329.72 84.7 370.76 81 M 241 81 C 289.51 84.13 341.62 84.15 370.76 81" fill="none" stroke="#333333" stroke-width="2" stroke-linejoin="round" stroke-linecap="round" stroke-miterlimit="10" pointer-events="stroke" style="stroke: light-dark(rgb(51, 51, 51), rgb(193, 193, 193));"/><path d="M 370.53 77.27 C 370.53 77.27 370.53 77.27 370.53 77.27 M 370.53 77.27 C 370.53 77.27 370.53 77.27 370.53 77.27 M 372.63 87.05 C 374.73 86.69 375.79 84.53 377.88 81.01 M 372.63 87.05 C 373.74 84.91 375.09 84.22 377.88 81.01" fill="none" stroke="#333333" stroke-linejoin="round" stroke-linecap="round" stroke-miterlimit="10" pointer-events="all" style="stroke: light-dark(rgb(51, 51, 51), rgb(193, 193, 193));"/><path d="M 378.76 81 C 377.62 82.83 373.14 85.52 370.76 85 M 378.76 81 C 374.99 82.67 372.88 84.21 370.76 85 M 370.76 85 C 372.13 82.82 371.94 79.96 370.76 77 M 370.76 85 C 371.46 81.99 370.53 79.27 370.76 77 M 370.76 77 C 372.25 78.11 378.35 78.55 378.76 81 M 370.76 77 C 372.71 77.3 373.9 78.31 378.76 81" fill="none" stroke="#333333" stroke-width="2" stroke-linejoin="round" stroke-linecap="round" stroke-miterlimit="10" pointer-events="all" style="stroke: light-dark(rgb(51, 51, 51), rgb(193, 193, 193));"/></g><g><path d="M 621 81 L 750.76 81" fill="none" stroke="none" pointer-events="stroke"/><path d="M 758.76 81 L 750.76 85 L 750.76 77 Z" fill="none" stroke="none" pointer-events="all"/><path d="M 621 81 C 659.16 85.72 690.33 83.65 750.76 81 M 621 81 C 667.35 81.95 715.81 83.8 750.76 81" fill="none" stroke="#333333" stroke-width="2" stroke-linejoin="round" stroke-linecap="round" stroke-miterlimit="10" pointer-events="stroke" style="stroke: light-dark(rgb(51, 51, 51), rgb(193, 193, 193));"/><path d="M 750.98 76.74 C 750.98 76.74 750.98 76.74 750.98 76.74 M 750.98 76.74 C 750.98 76.74 750.98 76.74 750.98 76.74 M 755.71 83.5 C 757.28 82.3 757.57 81.8 758.33 80.48 M 755.71 83.5 C 755.98 82.74 757.01 81.97 758.33 80.48" fill="none" stroke="#333333" stroke-linejoin="round" stroke-linecap="round" stroke-miterlimit="10" pointer-events="all" style="stroke: light-dark(rgb(51, 51, 51), rgb(193, 193, 193));"/><path d="M 758.76 81 C 757.68 82.94 753.51 83.11 750.76 85 M 758.76 81 C 755.82 81.95 753.87 84.21 750.76 85 M 750.76 85 C 749.52 82.27 751.73 81.23 750.76 77 M 750.76 85 C 750.5 82.41 750.59 80.4 750.76 77 M 750.76 77 C 751.75 76.88 753.17 78.79 758.76 81 M 750.76 77 C 752.71 77.85 756.73 79.81 758.76 81" fill="none" stroke="#333333" stroke-width="2" stroke-linejoin="round" stroke-linecap="round" stroke-miterlimit="10" pointer-events="all" style="stroke: light-dark(rgb(51, 51, 51), rgb(193, 193, 193));"/></g></g><switch><g requiredFeatures="http://www.w3.org/TR/SVG11/feature#Extensibility"/><a transform="translate(0,-5)" xlink:href="https://www.drawio.com/doc/faq/svg-export-text-problems" target="_blank"><text text-anchor="middle" font-size="10px" x="50%" y="100%">Text is not SVG - cannot display</text></a></switch></svg>